<svg width="100" height="38" viewBox="0 0 100 38" fill="none" xmlns="http://www.w3.org/2000/svg">
<path d="M5.16737 28.0503V37.1543H0V7.29937H5.16737V9.18622C6.21978 8.35251 7.32063 7.73384 8.46844 7.33019C9.61699 6.92728 10.8536 6.72546 12.1798 6.72546C13.6013 6.72546 14.9407 6.94784 16.1986 7.39184C17.4565 7.83659 18.5837 8.49636 19.5818 9.37116C20.9352 10.5469 21.9773 11.9339 22.709 13.5338C23.4399 15.133 23.8062 16.8349 23.8062 18.6395C23.8062 20.3209 23.4744 21.9274 22.8117 23.4583C22.1483 24.9892 21.2089 26.308 19.9921 27.4155C18.9529 28.3997 17.7677 29.1519 16.4349 29.6708C15.1021 30.1904 13.6975 30.4494 12.2209 30.4494C10.7854 30.4494 9.49663 30.2549 8.35616 29.8652C7.21421 29.4755 6.15153 28.8701 5.16737 28.0503ZM5.37213 18.4752C5.37213 20.4024 5.99374 22.0125 7.2377 23.3035C8.48165 24.5951 10.0192 25.241 11.8517 25.241C13.6564 25.241 15.1975 24.5849 16.4753 23.2726C17.753 21.9604 18.3922 20.3884 18.3922 18.5566C18.3922 16.6566 17.7493 15.0779 16.465 13.82C15.1799 12.5621 13.5602 11.9339 11.6059 11.9339C9.8834 11.9339 8.4134 12.5658 7.19733 13.8303C5.9798 15.0948 5.37213 16.6426 5.37213 18.4752Z" fill="white"/>
<path d="M32.5616 5.00298H27.4353V0H32.5616V5.00298ZM27.4353 29.8549V7.29934H32.5616V29.8549H27.4353Z" fill="white"/>
<path d="M47.0377 29.8549H42.9169L34.3457 7.29932H39.9431L45.1919 22.2884L50.6052 7.29932H56.0595L47.0377 29.8549Z" fill="white"/>
<path d="M91.2352 29.8549V11.975H87.7903V7.30008H91.2352V0.000732422H96.4847V7.30008H99.9502V11.975H96.4847V29.8549H91.2352Z" fill="white"/>
<path d="M60.7704 18.0619C60.7704 18.0274 60.7667 17.9944 60.7667 17.9592C60.7667 16.0048 61.3612 14.4093 62.5508 13.1712C63.7397 11.9339 65.278 11.3152 67.1641 11.3152C68.9959 11.3152 70.5165 11.9273 71.7267 13.1507C72.9362 14.3741 73.5409 15.9358 73.5409 17.8359C73.5409 17.9129 73.5343 17.9856 73.5329 18.0612H78.9908C78.9916 17.9995 78.9945 17.9386 78.9945 17.877C78.9945 16.3189 78.6731 14.7983 78.0309 13.3143C77.388 11.8319 76.4795 10.5226 75.3037 9.38798C74.1552 8.30842 72.8944 7.4982 71.5205 6.95805C70.1467 6.4179 68.6466 6.14783 67.0195 6.14783C65.4879 6.14783 64.012 6.45239 62.5904 7.0608C61.1689 7.6692 59.8904 8.54107 58.7558 9.67494C57.6484 10.7824 56.8044 12.0498 56.2239 13.4787C55.6426 14.9076 55.352 16.4143 55.352 18.0003C55.352 18.0208 55.3535 18.0406 55.3535 18.0612H60.7704V18.0619Z" fill="white"/>
<path d="M69.5654 20.1256C69.5654 20.1601 69.5617 20.1931 69.5617 20.2284C69.5617 22.1827 70.1562 23.7782 71.3458 25.0163C72.5347 26.2537 74.073 26.8723 75.9591 26.8723C77.7909 26.8723 79.3116 26.2603 80.5217 25.0369C81.7312 23.8134 82.3359 22.2517 82.3359 20.3517C82.3359 20.2746 82.3293 20.2019 82.3279 20.1263H87.7859C87.7866 20.188 87.7895 20.2489 87.7895 20.3106C87.7895 21.8686 87.4681 23.3893 86.8259 24.8732C86.183 26.3557 85.2745 27.6649 84.0988 28.7995C82.9502 29.8791 81.6894 30.6893 80.3155 31.2295C78.9417 31.7696 77.4416 32.0397 75.8145 32.0397C74.2829 32.0397 72.807 31.7351 71.3855 31.1267C69.9639 30.5183 68.6855 29.6465 67.5508 28.5126C66.4434 27.4051 65.5994 26.1377 65.0189 24.7088C64.4377 23.2799 64.147 21.7732 64.147 20.1873C64.147 20.1667 64.1485 20.1469 64.1485 20.1263H69.5654V20.1256Z" fill="white"/>
</svg>
